<svg width="24" height="24" viewBox="0 0 24 24" fill="none" xmlns="http://www.w3.org/2000/svg">
<g clip-path="url(#clip0)">
<path d="M12 0C5.38336 0 0 5.38341 0 12C0 18.6166 5.38336 24 12 24C15.2052 24 18.2581 22.7075 20.5246 20.4406C20.9013 20.0639 20.8588 19.4318 20.4768 19.0568L18.5829 17.1908C18.9912 16.6314 19.045 15.9509 18.708 15.3045C18.2483 14.4218 17.5654 13.7154 16.6797 13.2059C16.338 13.0085 16.0151 12.9121 15.6936 12.9124C15.5684 12.9124 15.4421 12.9277 15.3193 12.9568C14.9105 13.0564 14.5176 13.2478 14.1182 13.5416C13.9931 13.6354 13.8386 13.6821 13.6608 13.6821C13.444 13.6821 13.2094 13.6076 13.0485 13.4883C11.8819 12.6186 10.8927 11.6286 10.0231 10.4627C9.85274 10.2333 9.71668 9.73435 9.96893 9.39192C10.2639 8.99297 10.4546 8.60077 10.5538 8.19123C10.6605 7.74998 10.5789 7.30512 10.3055 6.83249C9.79554 5.94515 9.08906 5.26307 8.20646 4.80288C7.92054 4.65389 7.62788 4.57767 7.33606 4.57767C6.84966 4.57767 6.39387 4.78995 6.01884 5.18928C5.67411 5.55641 5.36926 5.9452 5.01784 6.41549C4.69581 6.8462 4.72251 7.34362 4.74525 7.78209L4.74603 7.79117C4.7857 8.34822 4.99359 9.00639 5.38185 9.80345C6.03811 11.1536 6.97015 12.4355 8.2313 13.7222C8.49053 13.9869 9.52338 15.0202 9.78856 15.2794C11.0759 16.5408 12.3578 17.4729 13.7072 18.1292C14.5047 18.5171 15.1629 18.725 15.7196 18.765L15.7289 18.7654C15.8435 18.7709 15.9659 18.7771 16.0851 18.7771C16.3695 18.7771 16.7339 18.7426 17.0626 18.5127L18.3088 19.7406C16.5307 21.1951 14.3278 21.9917 12.0001 21.9917C6.49083 21.9917 2.00852 17.5094 2.00852 12.0001C2.00852 6.49079 6.49088 2.00843 12.0001 2.00843C17.5094 2.00843 21.9918 6.49079 21.9918 12.0001C21.9918 12.5547 22.4414 13.0043 22.996 13.0043C23.5506 13.0043 24.0002 12.5547 24.0002 12.0001C24 5.38341 18.6166 0 12 0Z" fill="#FCDB50"/>
</g>
<defs>
<clipPath id="clip0">
<rect width="24" height="24" fill="white"/>
</clipPath>
</defs>
</svg>
