<svg width="40" height="44" viewBox="0 0 40 44" fill="none" xmlns="http://www.w3.org/2000/svg">
<path d="M39.7528 15.9546L33.6041 10.9389C33.6025 10.9376 33.6007 10.9366 33.5991 10.9352L36.4365 8.18944L37.9341 9.79974C38.3195 10.2143 39.0005 9.91029 39.0005 9.32477V2.87618C39.0005 2.50522 38.7208 2.20448 38.3758 2.20448H32.3786C31.8341 2.20448 31.5513 2.93667 31.9369 3.35115L33.7824 5.33561L30.5589 8.45498L20.4286 0.191372C20.2054 0.00924814 19.8966 0.00924814 19.6735 0.191372L12.0132 6.44003V4.26429H12.7212C13.0662 4.26429 13.3459 3.96355 13.3459 3.59258V0.72657C13.3459 0.355602 13.0662 0.054863 12.7212 0.054863H3.39226C3.04726 0.054863 2.76757 0.355602 2.76757 0.72657V3.59258C2.76757 3.96355 3.04726 4.26429 3.39226 4.26429H4.10023V12.8948L0.349215 15.9546C0.135465 16.1289 0.0491369 16.4305 0.134684 16.7039C0.220231 16.9773 0.458512 17.1615 0.726715 17.1615H3.76695V24.8126L0.210074 28.1652C-0.0575819 28.4175 -0.0715662 28.8748 0.180153 29.1453L1.95101 31.0495C2.18062 31.2964 2.56031 31.3099 2.80461 31.0796L3.76718 30.1722V32.9694C3.76718 33.3404 4.04687 33.6411 4.39187 33.6411C4.73687 33.6411 5.01656 33.3404 5.01656 32.9694V28.9988C5.01656 28.9974 5.0164 28.9961 5.0164 28.9946L12.2198 22.2039L12.9787 23.0198C13.6902 23.7849 14.8284 23.8115 15.5703 23.0805L18.8467 19.8511C19.101 19.6004 19.1183 19.1755 18.8852 18.902C18.652 18.6285 18.2569 18.6101 18.0025 18.8606L14.7261 22.0901C14.4787 22.3338 14.0994 22.3249 13.8623 22.0699L12.6898 20.8091C12.457 20.5589 12.0837 20.5456 11.8362 20.7791L2.42078 29.6547L1.53539 28.7027L11.8934 18.9399C12.14 18.7078 12.5148 18.7212 12.7465 18.9705L13.8997 20.2104C14.1362 20.4647 14.517 20.4736 14.7635 20.2307L21.8779 13.2183C22.1253 12.9746 22.5046 12.9835 22.7417 13.2386L24.5689 15.2033C24.8038 15.456 25.1816 15.4667 25.4285 15.2276L35.1077 5.86047C35.3697 5.60686 35.381 5.15441 35.1315 4.88618L33.8867 3.54781H37.7511V7.70296L36.9009 6.7889C36.666 6.5363 36.2883 6.52554 36.0413 6.76462L25.3834 17.0787C25.1362 17.3178 24.7587 17.3071 24.5237 17.0544L22.7041 15.098C22.4677 14.8437 22.0869 14.8349 21.8403 15.0778L20.6284 16.2722C20.3741 16.5229 20.3569 16.9478 20.5901 17.2213C20.8232 17.4948 21.2184 17.5132 21.4727 17.2625L22.2436 16.5027L23.6402 18.0043C24.3452 18.7624 25.478 18.7945 26.2191 18.0773L32.689 11.8162C32.7291 11.889 37.5181 15.8181 37.5181 15.8181H35.7103C35.3653 15.8181 35.0856 16.1189 35.0856 16.4898V41.6124H5.01648V37.2686C5.01648 36.8976 4.73679 36.5969 4.39179 36.5969C4.04679 36.5969 3.76711 36.8976 3.76711 37.2686V42.2841C3.76711 42.6551 4.04679 42.9558 4.39179 42.9558H35.7104C36.0554 42.9558 36.3351 42.6551 36.3351 42.2841V17.1616H39.3753C39.6436 17.1616 39.8819 16.9775 39.9673 16.7041C40.0529 16.4305 39.9665 16.1289 39.7528 15.9546ZM4.01695 2.92087V1.39828H12.0965V2.92087H4.01695ZM10.7637 4.26429V7.45918L5.34961 11.8756V4.26429H10.7637ZM25.0333 13.8023L23.6252 12.2884C22.9137 11.5233 21.7753 11.4966 21.0335 12.2277L14.36 18.8055L13.6298 18.0204C12.9346 17.2727 11.8102 17.2325 11.0701 17.929L5.0164 23.635V16.4897C5.0164 16.1187 4.73672 15.818 4.39172 15.818H2.5839L20.051 1.56965L29.6134 9.36988L25.0333 13.8023Z" fill="white"/>
<path d="M20.0511 24.4161C16.3998 24.4161 13.4292 27.6103 13.4292 31.5364C13.4292 35.4625 16.3998 38.6567 20.0511 38.6567C23.7023 38.6567 26.6729 35.4625 26.6729 31.5364C26.6729 27.6103 23.7024 24.4161 20.0511 24.4161ZM20.0511 37.3133C17.0887 37.3133 14.6786 34.7218 14.6786 31.5364C14.6786 28.351 17.0887 25.7595 20.0511 25.7595C23.0135 25.7595 25.4236 28.351 25.4236 31.5364C25.4236 34.7218 23.0134 37.3133 20.0511 37.3133Z" fill="#FCDB50"/>
<path d="M21.2172 30.8647H20.6758V28.9839H22.0502C22.3952 28.9839 22.6749 28.6831 22.6749 28.3122C22.6749 27.9412 22.3952 27.6405 22.0502 27.6405H20.6758V26.8792C20.6758 26.5082 20.3961 26.2075 20.0511 26.2075C19.7061 26.2075 19.4264 26.5082 19.4264 26.8792V27.6405H18.885C18.0814 27.6405 17.4274 28.3436 17.4274 29.2078V30.6409C17.4274 31.505 18.0813 32.2082 18.885 32.2082H19.4264V34.089H18.0521C17.7071 34.089 17.4274 34.3898 17.4274 34.7607C17.4274 35.1317 17.7071 35.4325 18.0521 35.4325H19.4264V36.1937C19.4264 36.5647 19.7061 36.8654 20.0511 36.8654C20.3961 36.8654 20.6758 36.5647 20.6758 36.1937V35.4325H21.2172C22.0209 35.4325 22.6749 34.7293 22.6749 33.8651V32.432C22.6748 31.5678 22.0209 30.8647 21.2172 30.8647ZM19.4264 30.8647H18.8849C18.7702 30.8647 18.6767 30.7642 18.6767 30.6408V29.2077C18.6767 29.0843 18.7702 28.9839 18.8849 28.9839H19.4264V30.8647ZM21.4254 33.8651C21.4254 33.9885 21.332 34.089 21.2172 34.089H20.6758V32.2082H21.2172C21.332 32.2082 21.4254 32.3086 21.4254 32.432V33.8651Z" fill="#FCDB50"/>
</svg>
