<svg width="40" height="43" viewBox="0 0 40 43" fill="none" xmlns="http://www.w3.org/2000/svg">
<g clip-path="url(#clip0)">
<path d="M7.85156 30.0576C8.17536 30.0576 8.4375 29.7813 8.4375 29.4408V23.5197C8.4375 23.1792 8.17536 22.903 7.85156 22.903C7.52777 22.903 7.26562 23.1792 7.26562 23.5197V29.4408C7.26562 29.7813 7.52777 30.0576 7.85156 30.0576Z" fill="#FCDB50"/>
<path d="M11.0547 30.0576C11.3785 30.0576 11.6406 29.7813 11.6406 29.4408V23.5197C11.6406 23.1792 11.3785 22.903 11.0547 22.903C10.7309 22.903 10.4688 23.1792 10.4688 23.5197V29.4408C10.4688 29.7813 10.7309 30.0576 11.0547 30.0576Z" fill="#FCDB50"/>
<path d="M14.1797 30.0576C14.5035 30.0576 14.7656 29.7813 14.7656 29.4408V23.5197C14.7656 23.1792 14.5035 22.903 14.1797 22.903C13.8559 22.903 13.5938 23.1792 13.5938 23.5197V29.4408C13.5938 29.7813 13.8559 30.0576 14.1797 30.0576Z" fill="#FCDB50"/>
<path d="M17.3828 27.0971C17.7066 27.0971 17.9688 26.8208 17.9688 26.4803V23.5197C17.9688 23.1792 17.7066 22.903 17.3828 22.903C17.059 22.903 16.7969 23.1792 16.7969 23.5197V26.4803C16.7969 26.8208 17.059 27.0971 17.3828 27.0971Z" fill="#FCDB50"/>
<path d="M38.1641 9.12825H36.9923C36.6685 9.12825 36.4063 9.40452 36.4063 9.74503C36.4063 10.0855 36.6685 10.3618 36.9923 10.3618H38.1641C38.4873 10.3618 38.7501 10.6384 38.7501 10.9786V36.2253C38.7501 36.5655 38.4873 36.8421 38.1641 36.8421H34.7431C34.8081 36.6491 34.8438 36.4415 34.8438 36.2253V34.1283C34.8438 33.7878 34.5817 33.5115 34.2579 33.5115C33.9341 33.5115 33.6719 33.7878 33.6719 34.1283V36.2253C33.6719 36.5655 33.4092 36.8421 33.086 36.8421H14.433C14.5212 36.6134 14.5703 36.3635 14.5703 36.102C14.5703 35.2292 14.029 34.4871 13.2813 34.2276V32.8947H14.3576C15.0959 32.8947 15.8014 32.6047 16.3437 32.0778L21.9471 26.6383C22.5467 26.0562 22.8907 25.23 22.8907 24.3713V21.9983C22.8907 21.2049 22.2773 20.5592 21.5235 20.5592H10.4688V5.87989C10.4688 5.5397 10.7315 5.26311 11.0547 5.26311H33.086C33.4092 5.26311 33.6719 5.5397 33.6719 5.87989V31.25C33.6719 31.5905 33.9341 31.8668 34.2579 31.8668C34.5817 31.8668 34.8438 31.5905 34.8438 31.25V5.87989C34.8438 4.85964 34.0552 4.02956 33.086 4.02956H11.0547C10.0855 4.02956 9.29689 4.85964 9.29689 5.87989V20.5592H5.15626V17.2286C5.15626 16.2083 4.36768 15.3783 3.39844 15.3783H1.67969C0.710451 15.3783 -0.078125 16.2083 -0.078125 17.2286C-0.078125 18.2488 0.710451 19.0789 1.67969 19.0789H3.98438V31.4556C3.98438 32.2073 4.53523 32.8257 5.23439 32.8883V34.2276C4.4867 34.4871 3.94532 35.2292 3.94532 36.102C3.94532 37.1903 4.78639 38.0757 5.82032 38.0757C6.64949 38.0757 7.35445 37.5058 7.60103 36.7188H10.9146C11.1612 37.5058 11.8662 38.0757 12.6953 38.0757H38.1641C39.1334 38.0757 39.922 37.2456 39.922 36.2253V10.9786C39.922 9.95833 39.1334 9.12825 38.1641 9.12825ZM12.1094 34.2276C11.546 34.4232 11.1005 34.8922 10.9146 35.4852H7.60103C7.41518 34.8922 6.96962 34.4232 6.40626 34.2276V32.8947H12.1094V34.2276ZM1.09375 17.2286C1.09375 16.8884 1.35651 16.6118 1.67969 16.6118H3.39844C3.72163 16.6118 3.98438 16.8884 3.98438 17.2286V17.8454H1.67969C1.35651 17.8454 1.09375 17.5688 1.09375 17.2286ZM5.15626 31.4556V21.7927H21.5235C21.6312 21.7927 21.7188 21.8849 21.7188 21.9983V24.3713C21.7188 24.8866 21.5125 25.3823 21.1527 25.7318L15.5493 31.171C15.2237 31.4871 14.8004 31.6612 14.3576 31.6612H5.35157C5.24385 31.6612 5.15626 31.569 5.15626 31.4556ZM5.82032 36.8421C5.43244 36.8421 5.1172 36.51 5.1172 36.102C5.1172 35.694 5.43244 35.3619 5.82032 35.3619C6.2082 35.3619 6.52345 35.694 6.52345 36.102C6.52345 36.51 6.2082 36.8421 5.82032 36.8421ZM12.6953 35.3619C13.0832 35.3619 13.3985 35.694 13.3985 36.102C13.3985 36.51 13.0832 36.8421 12.6953 36.8421C12.3075 36.8421 11.9922 36.51 11.9922 36.102C11.9922 35.694 12.3075 35.3619 12.6953 35.3619Z" fill="white"/>
<path d="M30.5469 15.0905C30.5469 14.297 29.9335 13.6513 29.1797 13.6513H27.6953C26.9415 13.6513 26.3281 14.297 26.3281 15.0905V16.653C26.3281 17.4464 26.9415 18.0921 27.6953 18.0921H29.1797C29.9335 18.0921 30.5469 17.4464 30.5469 16.653V15.0905ZM29.375 16.653C29.375 16.7664 29.2874 16.8586 29.1797 16.8586H27.6953C27.5876 16.8586 27.5 16.7664 27.5 16.653V15.0905C27.5 14.9771 27.5876 14.8849 27.6953 14.8849H29.1797C29.2874 14.8849 29.375 14.9771 29.375 15.0905V16.653Z" fill="#FCDB50"/>
<path d="M30.5469 21.9984C30.5469 21.2049 29.9335 20.5592 29.1797 20.5592H27.6953C26.9415 20.5592 26.3281 21.2049 26.3281 21.9984V23.5609C26.3281 24.3543 26.9415 25 27.6953 25H29.1797C29.9335 25 30.5469 24.3543 30.5469 23.5609V21.9984ZM29.375 23.5609C29.375 23.6743 29.2874 23.7664 29.1797 23.7664H27.6953C27.5876 23.7664 27.5 23.6743 27.5 23.5609V21.9984C27.5 21.885 27.5876 21.7928 27.6953 21.7928H29.1797C29.2874 21.7928 29.375 21.885 29.375 21.9984V23.5609Z" fill="#FCDB50"/>
<path d="M29.1797 27.4671H27.6953C26.9415 27.4671 26.3281 28.1128 26.3281 28.9063V30.4688C26.3281 31.2622 26.9415 31.9079 27.6953 31.9079H29.1797C29.9335 31.9079 30.5469 31.2622 30.5469 30.4688V28.9063C30.5469 28.1128 29.9335 27.4671 29.1797 27.4671ZM29.375 30.4688C29.375 30.5822 29.2874 30.6744 29.1797 30.6744H27.6953C27.5876 30.6744 27.5 30.5822 27.5 30.4688V28.9063C27.5 28.7929 27.5876 28.7007 27.6953 28.7007H29.1797C29.2874 28.7007 29.375 28.7929 29.375 28.9063V30.4688Z" fill="#FCDB50"/>
<path d="M24.1406 14.0213H14.1406C13.8168 14.0213 13.5547 14.2976 13.5547 14.6381C13.5547 14.9786 13.8168 15.2549 14.1406 15.2549H24.1406C24.4644 15.2549 24.7266 14.9786 24.7266 14.6381C24.7266 14.2976 24.4644 14.0213 24.1406 14.0213Z" fill="#FCDB50"/>
<path d="M14.1406 16.4885C13.8168 16.4885 13.5547 16.7647 13.5547 17.1053C13.5547 17.4458 13.8168 17.722 14.1406 17.722H17.2916C17.6154 17.722 17.8775 17.4458 17.8775 17.1053C17.8775 16.7647 17.6154 16.4885 17.2916 16.4885H14.1406Z" fill="#FCDB50"/>
<path d="M19.6354 16.4885C19.3119 16.4885 19.0494 16.7647 19.0494 17.1053C19.0494 17.4458 19.3119 17.722 19.6354 17.722H21.7969C22.1207 17.722 22.3829 17.4458 22.3829 17.1053C22.3829 16.7647 22.1207 16.4885 21.7969 16.4885H19.6354Z" fill="#FCDB50"/>
<path d="M24.1406 27.8372H22.8125C22.4887 27.8372 22.2266 28.1135 22.2266 28.454C22.2266 28.7945 22.4887 29.0707 22.8125 29.0707H24.1406C24.4644 29.0707 24.7266 28.7945 24.7266 28.454C24.7266 28.1135 24.4644 27.8372 24.1406 27.8372Z" fill="#FCDB50"/>
<path d="M24.1406 30.3043H20.8594C20.5356 30.3043 20.2734 30.5805 20.2734 30.9211C20.2734 31.2616 20.5356 31.5378 20.8594 31.5378H24.1406C24.4644 31.5378 24.7266 31.2616 24.7266 30.9211C24.7266 30.5805 24.4644 30.3043 24.1406 30.3043Z" fill="#FCDB50"/>
</g>
<defs>
<clipPath id="clip0">
<rect width="40" height="42.1053" fill="white"/>
</clipPath>
</defs>
</svg>
