<svg width="44" height="41" viewBox="0 0 44 41" fill="none" xmlns="http://www.w3.org/2000/svg">
<path d="M43.2994 9.05307C43.6864 9.05307 44 8.76087 44 8.4002V4.13483C44 3.77416 43.6864 3.48196 43.2994 3.48196H8.81891C8.48195 1.51115 6.64572 0 4.43738 0C1.99066 0 0 1.85493 0 4.13483V26.4194C0 26.78 0.313586 27.0723 0.700648 27.0723C1.08771 27.0723 1.4013 26.78 1.4013 26.4194V4.13483C1.4013 2.57483 2.76323 1.30575 4.43738 1.30575C6.11153 1.30575 7.47347 2.57483 7.47347 4.13483V33.8525C6.67915 33.1569 5.61077 32.7304 4.43738 32.7304C3.26399 32.7304 2.19562 33.1569 1.4013 33.8525V30.0002C1.4013 29.6396 1.08771 29.3474 0.700648 29.3474C0.313586 29.3474 0 29.6396 0 30.0002V36.8652C0 39.1451 1.99066 41 4.43738 41H43.2994C43.6864 41 44 40.7078 44 40.3471V11.7951C44 11.4344 43.6864 11.1422 43.2994 11.1422C42.9123 11.1422 42.5987 11.4344 42.5987 11.7951V39.6942H4.43738C2.76323 39.6942 1.4013 38.4252 1.4013 36.8652C1.4013 35.3052 2.76323 34.0361 4.43738 34.0361C6.11153 34.0361 7.47347 35.3052 7.47347 36.8652C7.47347 37.2258 7.78705 37.518 8.17412 37.518C8.56118 37.518 8.87477 37.2258 8.87477 36.8652V4.78771H42.5988V8.4002C42.5987 8.76087 42.9124 9.05307 43.2994 9.05307Z" fill="white"/>
<path d="M39.2115 15.4351L26.1329 7.07834C25.8943 6.92579 25.5791 6.92579 25.3406 7.07834L12.262 15.4351C12.0088 15.5969 11.8981 15.8935 11.989 16.1668C12.08 16.44 12.3511 16.6264 12.6583 16.6264H15.6944V28.5085C15.6944 28.8692 16.0079 29.1614 16.395 29.1614H35.0787C35.4657 29.1614 35.7793 28.8692 35.7793 28.5085V16.6263H38.8154C39.1225 16.6263 39.3937 16.44 39.4847 16.1667C39.5754 15.8934 39.4648 15.5969 39.2115 15.4351ZM35.0786 15.3206C34.6915 15.3206 34.3779 15.6128 34.3779 15.9735V27.8557H17.0956V15.9734C17.0956 15.6127 16.782 15.3205 16.3949 15.3205H14.9189L25.7368 8.40836L36.5547 15.3205H35.0786V15.3206Z" fill="white"/>
<path d="M27.9787 19.4989C27.0813 19.4989 26.2768 19.8757 25.7367 20.4679C25.1966 19.8757 24.3921 19.4989 23.4947 19.4989C22.9121 19.4989 22.369 19.6581 21.9115 19.9314C21.8143 19.6793 21.5565 19.4989 21.2527 19.4989C20.8656 19.4989 20.552 19.7911 20.552 20.1518V25.7229C20.552 26.0836 20.8656 26.3758 21.2527 26.3758C21.6397 26.3758 21.9533 26.0836 21.9533 25.7229V22.241C21.9533 21.449 22.6448 20.8047 23.4947 20.8047C24.3446 20.8047 25.036 21.449 25.036 22.241V25.7229C25.036 26.0836 25.3496 26.3758 25.7367 26.3758C26.1238 26.3758 26.4373 26.0836 26.4373 25.7229V22.241C26.4373 21.449 27.1288 20.8047 27.9787 20.8047C28.8286 20.8047 29.5201 21.449 29.5201 22.241V25.7229C29.5201 26.0836 29.8337 26.3758 30.2207 26.3758C30.6078 26.3758 30.9214 26.0836 30.9214 25.7229V22.241C30.9214 20.729 29.6013 19.4989 27.9787 19.4989Z" fill="#FCDB50"/>
<path d="M30.2208 17.4098H28.9228L30.7161 15.7388C30.8475 15.6164 30.9213 15.4504 30.9213 15.2771C30.9213 14.1491 29.9364 13.2314 28.7259 13.2314C27.5154 13.2314 26.5306 14.1491 26.5306 15.2771C26.5306 15.6378 26.8442 15.93 27.2313 15.93C27.6183 15.93 27.9319 15.6378 27.9319 15.2771C27.9319 14.9284 28.2052 14.6184 28.5724 14.5511C28.9598 14.4801 29.3552 14.6951 29.4798 15.0442L26.7359 17.601C26.3037 18.0039 26.6206 18.7155 27.2314 18.7155H30.2208C30.6079 18.7155 30.9214 18.4233 30.9214 18.0626C30.9214 17.702 30.6079 17.4098 30.2208 17.4098Z" fill="#FCDB50"/>
<path d="M38.8153 31.3376H12.6582C12.2711 31.3376 11.9575 31.6298 11.9575 31.9905V36.8652C11.9575 37.2259 12.2711 37.5181 12.6582 37.5181H30.5944C30.9815 37.5181 31.2951 37.2259 31.2951 36.8652C31.2951 36.5046 30.9815 36.2124 30.5944 36.2124H13.3588V32.6434H15.6943V34.0796C15.6943 34.4403 16.0078 34.7325 16.3949 34.7325C16.782 34.7325 17.0956 34.4403 17.0956 34.0796V32.6434H19.431V34.0796C19.431 34.4403 19.7446 34.7325 20.1316 34.7325C20.5187 34.7325 20.8323 34.4403 20.8323 34.0796V32.6434H23.1677V34.0796C23.1677 34.4403 23.4813 34.7325 23.8684 34.7325C24.2554 34.7325 24.569 34.4403 24.569 34.0796V32.6434H26.9045V34.0796C26.9045 34.4403 27.218 34.7325 27.6051 34.7325C27.9922 34.7325 28.3058 34.4403 28.3058 34.0796V32.6434H30.6412V34.0796C30.6412 34.4403 30.9548 34.7325 31.3418 34.7325C31.7289 34.7325 32.0425 34.4403 32.0425 34.0796V32.6434H34.3779V34.0796C34.3779 34.4403 34.6915 34.7325 35.0786 34.7325C35.4656 34.7325 35.7792 34.4403 35.7792 34.0796V32.6434H38.1147V36.2124H34.6115C34.2244 36.2124 33.9109 36.5046 33.9109 36.8652C33.9109 37.2259 34.2244 37.5181 34.6115 37.5181H38.8153C39.2024 37.5181 39.516 37.2259 39.516 36.8652V31.9904C39.516 31.6298 39.2023 31.3376 38.8153 31.3376Z" fill="#FCDB50"/>
</svg>
