<svg width="40" height="43" viewBox="0 0 40 43" fill="none" xmlns="http://www.w3.org/2000/svg">
<g clip-path="url(#clip0)">
<path d="M33.3612 9.14185C33.0153 9.14185 32.7349 9.43699 32.7349 9.80114V40.1275C32.7349 40.491 32.4539 40.7868 32.1086 40.7868H7.89144C7.54605 40.7868 7.26511 40.491 7.26511 40.1275V34.4138C7.26511 34.0497 6.98472 33.7545 6.63878 33.7545C6.29284 33.7545 6.01245 34.0497 6.01245 34.4138V40.1275C6.01245 41.2181 6.85526 42.1053 7.89136 42.1053H32.1086C33.1446 42.1053 33.9875 41.2181 33.9875 40.1275V9.80114C33.9875 9.43699 33.7071 9.14185 33.3612 9.14185Z" fill="white"/>
<path d="M32.1085 0H7.89136C6.85534 0 6.01245 0.887171 6.01245 1.9778V30.1945C6.01245 30.5586 6.29284 30.8538 6.63878 30.8538C6.98472 30.8538 7.26511 30.5586 7.26511 30.1945V1.9778C7.26511 1.61423 7.54605 1.3185 7.89144 1.3185H32.1085C32.4539 1.3185 32.7349 1.61423 32.7349 1.9778V6.28503C32.7349 6.6491 33.0152 6.94433 33.3612 6.94433C33.7071 6.94433 33.9875 6.64918 33.9875 6.28503V1.9778C33.9875 0.887171 33.1445 0 32.1085 0Z" fill="white"/>
<path d="M30.689 2.81293H9.31114C8.96528 2.81293 8.68481 3.10808 8.68481 3.47222V16.8334C8.68481 17.1975 8.96521 17.4927 9.31114 17.4927H30.689C31.035 17.4927 31.3154 17.1976 31.3154 16.8334V3.47214C31.3153 3.10808 31.035 2.81293 30.689 2.81293ZM30.0627 16.174H9.93739V4.13143H30.0626V16.174H30.0627Z" fill="white"/>
<path d="M30.6889 18.9869H21.336C20.9901 18.9869 20.7097 19.2821 20.7097 19.6462V28.0849C20.7097 28.4489 20.99 28.7442 21.336 28.7442H30.6889C31.0348 28.7442 31.3152 28.449 31.3152 28.0849V19.6462C31.3152 19.2821 31.0349 18.9869 30.6889 18.9869ZM30.0626 27.4256H21.9624V20.3055H30.0626V27.4256Z" fill="white"/>
<path d="M18.664 18.9869H9.31114C8.96528 18.9869 8.68481 19.2821 8.68481 19.6462V28.0849C8.68481 28.4489 8.9652 28.7442 9.31114 28.7442H18.664C19.0098 28.7442 19.2903 28.449 19.2903 28.0849V19.6462C19.2902 19.2821 19.0098 18.9869 18.664 18.9869ZM18.0376 27.4256H9.93739V20.3055H18.0376V27.4256Z" fill="#FCDB50"/>
<path d="M30.6889 29.5352H21.336C20.9901 29.5352 20.7097 29.8304 20.7097 30.1945V38.6332C20.7097 38.9972 20.99 39.2925 21.336 39.2925H30.6889C31.0348 39.2925 31.3152 38.9973 31.3152 38.6332V30.1945C31.3152 29.8304 31.0349 29.5352 30.6889 29.5352ZM30.0626 37.9739H21.9624V30.8538H30.0626V37.9739Z" fill="#FCDB50"/>
<path d="M18.664 29.5352H9.31114C8.96528 29.5352 8.68481 29.8304 8.68481 30.1945V38.6332C8.68481 38.9972 8.9652 39.2925 9.31114 39.2925H18.664C19.0098 39.2925 19.2903 38.9973 19.2903 38.6332V30.1945C19.2902 29.8304 19.0098 29.5352 18.664 29.5352ZM18.0376 37.9739H9.93739V30.8538H18.0376V37.9739Z" fill="white"/>
<path d="M15.9917 23.2063H14.6138V21.7559C14.6138 21.3918 14.3334 21.0966 13.9875 21.0966C13.6415 21.0966 13.3612 21.3917 13.3612 21.7559V23.2063H11.9833C11.6374 23.2063 11.3569 23.5014 11.3569 23.8656C11.3569 24.2297 11.6373 24.5249 11.9833 24.5249H13.3612V25.9753C13.3612 26.3393 13.6415 26.6346 13.9875 26.6346C14.3334 26.6346 14.6138 26.3394 14.6138 25.9753V24.5249H15.9917C16.3376 24.5249 16.618 24.2297 16.618 23.8656C16.618 23.5014 16.3376 23.2063 15.9917 23.2063Z" fill="#FCDB50"/>
<path d="M28.0168 23.2063H24.0084C23.6625 23.2063 23.3821 23.5014 23.3821 23.8655C23.3821 24.2297 23.6624 24.5248 24.0084 24.5248H28.0168C28.3627 24.5248 28.6431 24.2297 28.6431 23.8655C28.6431 23.5014 28.3627 23.2063 28.0168 23.2063Z" fill="white"/>
<path d="M14.8731 34.4138L16.4345 32.7703C16.6791 32.5129 16.6791 32.0954 16.4345 31.838C16.1898 31.5805 15.7933 31.5805 15.5488 31.838L13.9874 33.4815L12.4261 31.838C12.1815 31.5805 11.7849 31.5805 11.5404 31.838C11.2958 32.0955 11.2958 32.5129 11.5404 32.7703L13.1017 34.4138L11.5404 36.0573C11.3123 36.2973 11.2972 36.6938 11.507 36.9518C11.7412 37.2397 12.1712 37.2578 12.426 36.9896L13.9873 35.3461L15.5487 36.9896C15.8034 37.2578 16.2334 37.2397 16.4677 36.9518C16.6776 36.6938 16.6624 36.2973 16.4343 36.0573L14.8731 34.4138Z" fill="white"/>
<path d="M28.4595 31.838C28.2149 31.5805 27.8184 31.5805 27.5738 31.838L23.5654 36.0573C23.1796 36.4634 23.4605 37.1827 24.0082 37.1827C24.1685 37.1827 24.3288 37.1184 24.4511 36.9896L28.4595 32.7703C28.7042 32.5128 28.7042 32.0954 28.4595 31.838Z" fill="#FCDB50"/>
<path d="M25.1194 32.5412L24.4513 31.838C24.2066 31.5805 23.8101 31.5805 23.5655 31.838C23.3209 32.0955 23.3209 32.5129 23.5655 32.7703L24.2335 33.4735C24.4883 33.7416 24.9183 33.7236 25.1526 33.4357C25.3625 33.1777 25.3474 32.7812 25.1194 32.5412Z" fill="#FCDB50"/>
<path d="M28.4597 36.0573L27.7915 35.3541C27.5468 35.0966 27.1504 35.0966 26.9057 35.3541C26.6611 35.6116 26.6611 36.029 26.9057 36.2864L27.5738 36.9896C27.8286 37.2577 28.2586 37.2397 28.4929 36.9518C28.7028 36.6938 28.6876 36.2973 28.4597 36.0573Z" fill="#FCDB50"/>
<path d="M28.4596 9.33494L24.4512 5.11561C24.2065 4.85813 23.8101 4.85813 23.5655 5.11561L19.5571 9.33494C19.4396 9.45854 19.3737 9.62622 19.3737 9.80106V14.7236C19.3737 15.0877 19.654 15.3829 20 15.3829H22.6723C23.0182 15.3829 23.2986 15.0877 23.2986 14.7236V12.57H24.7182V14.7236C24.7182 15.0877 24.9985 15.3829 25.3445 15.3829H28.0168C28.3627 15.3829 28.6431 15.0877 28.6431 14.7236V9.80106C28.643 9.6263 28.577 9.45854 28.4596 9.33494ZM27.3904 14.0644H25.9708V11.9108C25.9708 11.5467 25.6905 11.2515 25.3444 11.2515H22.6722C22.3262 11.2515 22.0458 11.5466 22.0458 11.9108V14.0644H20.6262V10.0742L24.0083 6.51413L27.3903 10.0742V14.0644H27.3904Z" fill="white"/>
<path d="M17.1026 5.8189C16.858 5.56141 16.4614 5.56141 16.2169 5.8189L11.2064 11.0931C10.8205 11.4991 11.1015 12.2185 11.6492 12.2185C11.8094 12.2185 11.9698 12.1542 12.092 12.0254L17.1025 6.75122C17.3471 6.49365 17.3471 6.07622 17.1026 5.8189Z" fill="#FCDB50"/>
<path d="M17.7706 10.0382C17.526 9.7807 17.1294 9.7807 16.8849 10.0382L14.8807 12.1478C14.6527 12.3878 14.6375 12.7843 14.8474 13.0423C15.0816 13.3302 15.5116 13.3483 15.7664 13.0801L17.7705 10.9705C18.0152 10.713 18.0152 10.2956 17.7706 10.0382Z" fill="#FCDB50"/>
</g>
<defs>
<clipPath id="clip0">
<rect width="40" height="42.1053" fill="white"/>
</clipPath>
</defs>
</svg>
